<?xml version="1.0" encoding="UTF-8" standalone="no"?>
<!DOCTYPE svg PUBLIC "-//W3C//DTD SVG 1.1//EN" "http://www.w3.org/Graphics/SVG/1.1/DTD/svg11.dtd">
<svg width="100%" height="100%" viewBox="0 0 512 512" version="1.1" xmlns="http://www.w3.org/2000/svg" xmlns:xlink="http://www.w3.org/1999/xlink" xml:space="preserve" xmlns:serif="http://www.serif.com/" style="fill-rule:evenodd;clip-rule:evenodd;stroke-linejoin:round;stroke-miterlimit:2;">
    <path d="M41.4,233.4C28.9,245.9 28.9,266.2 41.4,278.7L201.4,438.7C213.9,451.2 234.2,451.2 246.7,438.7C259.2,426.2 259.2,405.9 246.7,393.4L109.3,256L246.6,118.6C259.1,106.1 259.1,85.8 246.6,73.3C234.1,60.8 213.8,60.8 201.3,73.3L41.3,233.3L41.4,233.4ZM393.4,73.4L233.4,233.4C220.9,245.9 220.9,266.2 233.4,278.7L393.4,438.7C405.9,451.2 426.2,451.2 438.7,438.7C451.2,426.2 451.2,405.9 438.7,393.4L301.3,256L438.6,118.6C451.1,106.1 451.1,85.8 438.6,73.3C426.1,60.8 405.8,60.8 393.3,73.3L393.4,73.4Z" style="fill:rgb(249,234,46);fill-rule:nonzero;"/>
</svg>
