<?xml version="1.0" encoding="UTF-8" standalone="no"?>
<!DOCTYPE svg PUBLIC "-//W3C//DTD SVG 1.1//EN" "http://www.w3.org/Graphics/SVG/1.1/DTD/svg11.dtd">
<svg width="100%" height="100%" viewBox="0 0 640 512" version="1.1" xmlns="http://www.w3.org/2000/svg" xmlns:xlink="http://www.w3.org/1999/xlink" xml:space="preserve" xmlns:serif="http://www.serif.com/" style="fill-rule:evenodd;clip-rule:evenodd;stroke-linejoin:round;stroke-miterlimit:2;">
    <path d="M48,0C21.5,0 0,21.5 0,48L0,368C0,394.5 21.5,416 48,416L64,416C64,469 107,512 160,512C213,512 256,469 256,416L384,416C384,469 427,512 480,512C533,512 576,469 576,416L608,416C625.7,416 640,401.7 640,384C640,366.3 625.7,352 608,352L608,237.3C608,220.3 601.3,204 589.3,192L512,114.7C500,102.7 483.7,96 466.7,96L416,96L416,48C416,21.5 394.5,0 368,0L48,0ZM416,160L466.7,160L544,237.3L544,256L416,256L416,160ZM208,416C208,442.5 186.5,464 160,464C133.5,464 112,442.5 112,416C112,389.5 133.5,368 160,368C186.5,368 208,389.5 208,416ZM480,464C453.5,464 432,442.5 432,416C432,389.5 453.5,368 480,368C506.5,368 528,389.5 528,416C528,442.5 506.5,464 480,464ZM112,144C112,135.2 119.2,128 128,128L176,128L176,80C176,71.2 183.2,64 192,64L224,64C232.8,64 240,71.2 240,80L240,128L288,128C296.8,128 304,135.2 304,144L304,176C304,184.8 296.8,192 288,192L240,192L240,240C240,248.8 232.8,256 224,256L192,256C183.2,256 176,248.8 176,240L176,192L128,192C119.2,192 112,184.8 112,176L112,144Z" style="fill:rgb(249,234,46);fill-rule:nonzero;"/>
</svg>
